<svg width="16" height="16" viewBox="0 0 16 16" fill="none" xmlns="http://www.w3.org/2000/svg">
<path d="M1 2.24444C1 1.80885 1 1.59105 1.08477 1.42467C1.15934 1.27833 1.27833 1.15934 1.42467 1.08477C1.59105 1 1.80885 1 2.24444 1H13.7556C14.1912 1 14.409 1 14.5753 1.08477C14.7217 1.15934 14.8406 1.27833 14.9152 1.42467C15 1.59105 15 1.80885 15 2.24444V3.59565C15 3.78588 15 3.881 14.9785 3.97051C14.9595 4.04988 14.9281 4.12574 14.8854 4.19533C14.8373 4.27382 14.77 4.34108 14.6355 4.4756L9.92002 9.19109C9.78554 9.32557 9.71827 9.39284 9.6702 9.47132C9.6275 9.54093 9.59608 9.61677 9.57702 9.69618C9.55556 9.7857 9.55556 9.88082 9.55556 10.071V11.8889L6.44444 15V10.071C6.44444 9.88082 6.44444 9.7857 6.42295 9.69618C6.4039 9.61677 6.37248 9.54093 6.32983 9.47132C6.28173 9.39284 6.21447 9.32557 6.07995 9.19109L1.36449 4.4756C1.22997 4.34108 1.16271 4.27382 1.11461 4.19533C1.07197 4.12574 1.04055 4.04988 1.02149 3.97051C1 3.881 1 3.78588 1 3.59565V2.24444Z" stroke="#121212" stroke-width="2" stroke-linecap="round" stroke-linejoin="round"/>
</svg>
